[NULL @ 0xaaaac6b68b40] Unable to find a suitable output format for '04.xvid'
Output #0, mpeg, to '04.xvid':
    Stream #0:0: Video: mpeg1video, yuv420p, 640x480, q=2-31, 400 kb/s, 25 tbn
[mpeg @ 0xaaaac6b69b50] VBV buffer size not set, using default size of 230KB
If you want the mpeg file to be compliant to some specification
Like DVD, VCD or others, make sure you set the correct buffer size
Could not deduce output format from file extension: using MPEG.
pts:0 pts_time:0 dts:-3600 dts_time:-0.04 duration:0 duration_time:0 stream_index:0
[mpeg @ 0xaaaac6b69b50] buffer underflow st=0 bufi=10564 size=30716
[mpeg @ 0xaaaac6b69b50] buffer underflow st=0 bufi=12605 size=30716
[mpeg @ 0xaaaac6b69b50] buffer underflow st=0 bufi=14646 size=30716
[mpeg @ 0xaaaac6b69b50] buffer underflow st=0 bufi=16687 size=30716
[mpeg @ 0xaaaac6b69b50] buffer underflow st=0 bufi=18728 size=30716
[mpeg @ 0xaaaac6b69b50] buffer underflow st=0 bufi=20769 size=30716
[mpeg @ 0xaaaac6b69b50] buffer underflow st=0 bufi=22810 size=30716
[mpeg @ 0xaaaac6b69b50] buffer underflow st=0 bufi=24851 size=30716
[mpeg @ 0xaaaac6b69b50] buffer underflow st=0 bufi=26892 size=30716
[mpeg @ 0xaaaac6b69b50] buffer underflow st=0 bufi=28933 size=30716
pts:3600 pts_time:0.04 dts:0 dts_time:0 duration:0 duration_time:0 stream_index:0
[mpeg @ 0xaaaac6b69b50] buffer underflow st=0 bufi=249 size=13455
[mpeg @ 0xaaaac6b69b50] buffer underflow st=0 bufi=2290 size=13455
[mpeg @ 0xaaaac6b69b50] buffer underflow st=0 bufi=4331 size=13455
[mpeg @ 0xaaaac6b69b50] buffer underflow st=0 bufi=6372 size=13455
[mpeg @ 0xaaaac6b69b50] buffer underflow st=0 bufi=8413 size=13455
[mpeg @ 0xaaaac6b69b50] buffer underflow st=0 bufi=10454 size=13455
[mpeg @ 0xaaaac6b69b50] buffer underflow st=0 bufi=12495 size=13455
pts:7200 pts_time:0.08 dts:3600 dts_time:0.04 duration:0 duration_time:0 stream_index:0
[mpeg @ 0xaaaac6b69b50] buffer underflow st=0 bufi=1072 size=22221
[mpeg @ 0xaaaac6b69b50] buffer underflow st=0 bufi=3113 size=22221
[mpeg @ 0xaaaac6b69b50] buffer underflow st=0 bufi=5154 size=22221
[mpeg @ 0xaaaac6b69b50] buffer underflow st=0 bufi=7195 size=22221
[mpeg @ 0xaaaac6b69b50] buffer underflow st=0 bufi=9236 size=22221
[mpeg @ 0xaaaac6b69b50] buffer underflow st=0 bufi=11277 size=22221
[mpeg @ 0xaaaac6b69b50] buffer underflow st=0 bufi=13318 size=22221
[mpeg @ 0xaaaac6b69b50] buffer underflow st=0 bufi=15359 size=22221
[mpeg @ 0xaaaac6b69b50] buffer underflow st=0 bufi=17400 size=22221
[mpeg @ 0xaaaac6b69b50] buffer underflow st=0 bufi=19441 size=22221
[mpeg @ 0xaaaac6b69b50] buffer underflow st=0 bufi=21482 size=22221
pts:10800 pts_time:0.12 dts:7200 dts_time:0.08 duration:0 duration_time:0 stream_index:0
pts:14400 pts_time:0.16 dts:10800 dts_time:0.12 duration:0 duration_time:0 stream_index:0
[mpeg @ 0xaaaac6b69b50] buffer underflow st=0 bufi=636 size=802
pts:18000 pts_time:0.2 dts:14400 dts_time:0.16 duration:0 duration_time:0 stream_index:0
pts:21600 pts_time:0.24 dts:18000 dts_time:0.2 duration:0 duration_time:0 stream_index:0
pts:25200 pts_time:0.28 dts:21600 dts_time:0.24 duration:0 duration_time:0 stream_index:0
[mpeg @ 0xaaaac6b69b50] buffer underflow st=0 bufi=29 size=1895
pts:28800 pts_time:0.32 dts:25200 dts_time:0.28 duration:0 duration_time:0 stream_index:0
[mpeg @ 0xaaaac6b69b50] buffer underflow st=0 bufi=166 size=1231
pts:32400 pts_time:0.36 dts:28800 dts_time:0.32 duration:0 duration_time:0 stream_index:0
[mpeg @ 0xaaaac6b69b50] buffer underflow st=0 bufi=967 size=1193
pts:36000 pts_time:0.4 dts:32400 dts_time:0.36 duration:0 duration_time:0 stream_index:0
pts:39600 pts_time:0.44 dts:36000 dts_time:0.4 duration:0 duration_time:0 stream_index:0
[mpeg @ 0xaaaac6b69b50] buffer underflow st=0 bufi=717 size=19039
[mpeg @ 0xaaaac6b69b50] buffer underflow st=0 bufi=2758 size=19039
[mpeg @ 0xaaaac6b69b50] buffer underflow st=0 bufi=4799 size=19039
[mpeg @ 0xaaaac6b69b50] buffer underflow st=0 bufi=6840 size=19039
[mpeg @ 0xaaaac6b69b50] buffer underflow st=0 bufi=8881 size=19039
[mpeg @ 0xaaaac6b69b50] buffer underflow st=0 bufi=10922 size=19039
[mpeg @ 0xaaaac6b69b50] buffer underflow st=0 bufi=12951 size=19039
[mpeg @ 0xaaaac6b69b50] buffer underflow st=0 bufi=14992 size=19039
[mpeg @ 0xaaaac6b69b50] buffer underflow st=0 bufi=17033 size=19039
pts:43200 pts_time:0.48 dts:39600 dts_time:0.44 duration:0 duration_time:0 stream_index:0
[mpeg @ 0xaaaac6b69b50] buffer underflow st=0 bufi=26 size=7583
[mpeg @ 0xaaaac6b69b50] buffer underflow st=0 bufi=2067 size=7583
[mpeg @ 0xaaaac6b69b50] buffer underflow st=0 bufi=4108 size=7583
[mpeg @ 0xaaaac6b69b50] buffer underflow st=0 bufi=6149 size=7583
pts:46800 pts_time:0.52 dts:43200 dts_time:0.48 duration:0 duration_time:0 stream_index:0
[mpeg @ 0xaaaac6b69b50] buffer underflow st=0 bufi=598 size=1590
pts:50400 pts_time:0.56 dts:46800 dts_time:0.52 duration:0 duration_time:0 stream_index:0
[mpeg @ 0xaaaac6b69b50] buffer underflow st=0 bufi=1040 size=1697
pts:54000 pts_time:0.6 dts:50400 dts_time:0.56 duration:0 duration_time:0 stream_index:0
[mpeg @ 0xaaaac6b69b50] buffer underflow st=0 bufi=1375 size=1432
pts:57600 pts_time:0.64 dts:54000 dts_time:0.6 duration:0 duration_time:0 stream_index:0
pts:61200 pts_time:0.68 dts:57600 dts_time:0.64 duration:0 duration_time:0 stream_index:0
[mpeg @ 0xaaaac6b69b50] buffer underflow st=0 bufi=572 size=10140
[mpeg @ 0xaaaac6b69b50] buffer underflow st=0 bufi=2613 size=10140
[mpeg @ 0xaaaac6b69b50] buffer underflow st=0 bufi=4654 size=10140
[mpeg @ 0xaaaac6b69b50] buffer underflow st=0 bufi=6695 size=10140
[mpeg @ 0xaaaac6b69b50] buffer underflow st=0 bufi=8736 size=10140
pts:64800 pts_time:0.72 dts:61200 dts_time:0.68 duration:0 duration_time:0 stream_index:0
[mpeg @ 0xaaaac6b69b50] buffer underflow st=0 bufi=628 size=1600
pts:68400 pts_time:0.76 dts:64800 dts_time:0.72 duration:0 duration_time:0 stream_index:0
[mpeg @ 0xaaaac6b69b50] buffer underflow st=0 bufi=1060 size=6501
[mpeg @ 0xaaaac6b69b50] buffer underflow st=0 bufi=3101 size=6501
[mpeg @ 0xaaaac6b69b50] buffer underflow st=0 bufi=5142 size=6501
pts:72000 pts_time:0.8 dts:68400 dts_time:0.76 duration:0 duration_time:0 stream_index:0
[mpeg @ 0xaaaac6b69b50] buffer underflow st=0 bufi=673 size=1036
pts:75600 pts_time:0.84 dts:72000 dts_time:0.8 duration:0 duration_time:0 stream_index:0
[mpeg @ 0xaaaac6b69b50] buffer underflow st=0 bufi=1669 size=2147
pts:79200 pts_time:0.88 dts:75600 dts_time:0.84 duration:0 duration_time:0 stream_index:0
[mpeg @ 0xaaaac6b69b50] buffer underflow st=0 bufi=1554 size=2696
pts:82800 pts_time:0.92 dts:79200 dts_time:0.88 duration:0 duration_time:0 stream_index:0
[mpeg @ 0xaaaac6b69b50] buffer underflow st=0 bufi=890 size=17516
[mpeg @ 0xaaaac6b69b50] buffer underflow st=0 bufi=2931 size=17516
[mpeg @ 0xaaaac6b69b50] buffer underflow st=0 bufi=4972 size=17516
[mpeg @ 0xaaaac6b69b50] buffer underflow st=0 bufi=7013 size=17516
[mpeg @ 0xaaaac6b69b50] buffer underflow st=0 bufi=9054 size=17516
[mpeg @ 0xaaaac6b69b50] buffer underflow st=0 bufi=11095 size=17516
[mpeg @ 0xaaaac6b69b50] buffer underflow st=0 bufi=13136 size=17516
[mpeg @ 0xaaaac6b69b50] buffer underflow st=0 bufi=15177 size=17516
[mpeg @ 0xaaaac6b69b50] buffer underflow st=0 bufi=17218 size=17516
pts:86400 pts_time:0.96 dts:82800 dts_time:0.92 duration:0 duration_time:0 stream_index:0
[mpeg @ 0xaaaac6b69b50] buffer underflow st=0 bufi=1734 size=2431
pts:90000 pts_time:1 dts:86400 dts_time:0.96 duration:0 duration_time:0 stream_index:0
pts:93600 pts_time:1.04 dts:90000 dts_time:1 duration:0 duration_time:0 stream_index:0
[mpeg @ 0xaaaac6b69b50] buffer underflow st=0 bufi=628 size=1269
pts:97200 pts_time:1.08 dts:93600 dts_time:1.04 duration:0 duration_time:0 stream_index:0
[mpeg @ 0xaaaac6b69b50] buffer underflow st=0 bufi=1391 size=1504
pts:100800 pts_time:1.12 dts:97200 dts_time:1.08 duration:0 duration_time:0 stream_index:0
pts:104400 pts_time:1.16 dts:100800 dts_time:1.12 duration:0 duration_time:0 stream_index:0
[mpeg @ 0xaaaac6b69b50] buffer underflow st=0 bufi=553 size=2951
[mpeg @ 0xaaaac6b69b50] buffer underflow st=0 bufi=2594 size=2951
pts:108000 pts_time:1.2 dts:104400 dts_time:1.16 duration:0 duration_time:0 stream_index:0
pts:111600 pts_time:1.24 dts:108000 dts_time:1.2 duration:0 duration_time:0 stream_index:0
[mpeg @ 0xaaaac6b69b50] buffer underflow st=0 bufi=1394 size=2336
pts:115200 pts_time:1.28 dts:111600 dts_time:1.24 duration:0 duration_time:0 stream_index:0
[mpeg @ 0xaaaac6b69b50] buffer underflow st=0 bufi=1090 size=4071
[mpeg @ 0xaaaac6b69b50] buffer underflow st=0 bufi=3131 size=4071
pts:118800 pts_time:1.32 dts:115200 dts_time:1.28 duration:0 duration_time:0 stream_index:0
[mpeg @ 0xaaaac6b69b50] buffer underflow st=0 bufi=1092 size=1236
pts:122400 pts_time:1.36 dts:118800 dts_time:1.32 duration:0 duration_time:0 stream_index:0
pts:126000 pts_time:1.4 dts:122400 dts_time:1.36 duration:0 duration_time:0 stream_index:0
[mpeg @ 0xaaaac6b69b50] buffer underflow st=0 bufi=783 size=17651
[mpeg @ 0xaaaac6b69b50] buffer underflow st=0 bufi=2824 size=17651
[mpeg @ 0xaaaac6b69b50] buffer underflow st=0 bufi=4865 size=17651
[mpeg @ 0xaaaac6b69b50] buffer underflow st=0 bufi=6906 size=17651
[mpeg @ 0xaaaac6b69b50] buffer underflow st=0 bufi=8947 size=17651
[mpeg @ 0xaaaac6b69b50] buffer underflow st=0 bufi=10988 size=17651
[mpeg @ 0xaaaac6b69b50] buffer underflow st=0 bufi=13029 size=17651
[mpeg @ 0xaaaac6b69b50] buffer underflow st=0 bufi=15070 size=17651
[mpeg @ 0xaaaac6b69b50] buffer underflow st=0 bufi=17111 size=17651
pts:129600 pts_time:1.44 dts:126000 dts_time:1.4 duration:0 duration_time:0 stream_index:0
pts:133200 pts_time:1.48 dts:129600 dts_time:1.44 duration:0 duration_time:0 stream_index:0
[mpeg @ 0xaaaac6b69b50] buffer underflow st=0 bufi=117 size=1283
pts:136800 pts_time:1.52 dts:133200 dts_time:1.48 duration:0 duration_time:0 stream_index:0
[mpeg @ 0xaaaac6b69b50] buffer underflow st=0 bufi=866 size=1089
pts:140400 pts_time:1.56 dts:136800 dts_time:1.52 duration:0 duration_time:0 stream_index:0
pts:144000 pts_time:1.6 dts:140400 dts_time:1.56 duration:0 duration_time:0 stream_index:0
[mpeg @ 0xaaaac6b69b50] buffer underflow st=0 bufi=896 size=3056
[mpeg @ 0xaaaac6b69b50] buffer underflow st=0 bufi=2925 size=3056
pts:147600 pts_time:1.64 dts:144000 dts_time:1.6 duration:0 duration_time:0 stream_index:0
[mpeg @ 0xaaaac6b69b50] buffer underflow st=0 bufi=1901 size=4149
[mpeg @ 0xaaaac6b69b50] buffer underflow st=0 bufi=3942 size=4149
pts:151200 pts_time:1.68 dts:147600 dts_time:1.64 duration:0 duration_time:0 stream_index:0
pts:154800 pts_time:1.72 dts:151200 dts_time:1.68 duration:0 duration_time:0 stream_index:0
pts:158400 pts_time:1.76 dts:154800 dts_time:1.72 duration:0 duration_time:0 stream_index:0
[mpeg @ 0xaaaac6b69b50] buffer underflow st=0 bufi=496 size=1270
pts:162000 pts_time:1.8 dts:158400 dts_time:1.76 duration:0 duration_time:0 stream_index:0
[mpeg @ 0xaaaac6b69b50] buffer underflow st=0 bufi=1258 size=2600
pts:165600 pts_time:1.84 dts:162000 dts_time:1.8 duration:0 duration_time:0 stream_index:0
pts:169200 pts_time:1.88 dts:165600 dts_time:1.84 duration:0 duration_time:0 stream_index:0
[mpeg @ 0xaaaac6b69b50] buffer underflow st=0 bufi=235 size=19514
[mpeg @ 0xaaaac6b69b50] buffer underflow st=0 bufi=2276 size=19514
[mpeg @ 0xaaaac6b69b50] buffer underflow st=0 bufi=4317 size=19514
[mpeg @ 0xaaaac6b69b50] buffer underflow st=0 bufi=6358 size=19514
[mpeg @ 0xaaaac6b69b50] buffer underflow st=0 bufi=8399 size=19514
[mpeg @ 0xaaaac6b69b50] buffer underflow st=0 bufi=10440 size=19514
[mpeg @ 0xaaaac6b69b50] buffer underflow st=0 bufi=12481 size=19514
[mpeg @ 0xaaaac6b69b50] buffer underflow st=0 bufi=14522 size=19514
[mpeg @ 0xaaaac6b69b50] buffer underflow st=0 bufi=16563 size=19514
[mpeg @ 0xaaaac6b69b50] buffer underflow st=0 bufi=18604 size=19514
pts:172800 pts_time:1.92 dts:169200 dts_time:1.88 duration:0 duration_time:0 stream_index:0
pts:176400 pts_time:1.96 dts:172800 dts_time:1.92 duration:0 duration_time:0 stream_index:0
[mpeg @ 0xaaaac6b69b50] buffer underflow st=0 bufi=530 size=2376
pts:180000 pts_time:2 dts:176400 dts_time:1.96 duration:0 duration_time:0 stream_index:0
pts:183600 pts_time:2.04 dts:180000 dts_time:2 duration:0 duration_time:0 stream_index:0
[mpeg @ 0xaaaac6b69b50] buffer underflow st=0 bufi=101 size=1624
pts:187200 pts_time:2.08 dts:183600 dts_time:2.04 duration:0 duration_time:0 stream_index:0
[mpeg @ 0xaaaac6b69b50] buffer underflow st=0 bufi=509 size=4378
[mpeg @ 0xaaaac6b69b50] buffer underflow st=0 bufi=2550 size=4378
pts:190800 pts_time:2.12 dts:187200 dts_time:2.08 duration:0 duration_time:0 stream_index:0
pts:194400 pts_time:2.16 dts:190800 dts_time:2.12 duration:0 duration_time:0 stream_index:0
pts:198000 pts_time:2.2 dts:194400 dts_time:2.16 duration:0 duration_time:0 stream_index:0
[mpeg @ 0xaaaac6b69b50] buffer underflow st=0 bufi=18 size=2316
[mpeg @ 0xaaaac6b69b50] buffer underflow st=0 bufi=2059 size=2316
pts:201600 pts_time:2.24 dts:198000 dts_time:2.2 duration:0 duration_time:0 stream_index:0
pts:205200 pts_time:2.28 dts:201600 dts_time:2.24 duration:0 duration_time:0 stream_index:0
pts:208800 pts_time:2.32 dts:205200 dts_time:2.28 duration:0 duration_time:0 stream_index:0
[mpeg @ 0xaaaac6b69b50] buffer underflow st=0 bufi=547 size=991
pts:212400 pts_time:2.36 dts:208800 dts_time:2.32 duration:0 duration_time:0 stream_index:0
[mpeg @ 0xaaaac6b69b50] buffer underflow st=0 bufi=1588 size=33864
[mpeg @ 0xaaaac6b69b50] buffer underflow st=0 bufi=3629 size=33864
[mpeg @ 0xaaaac6b69b50] buffer underflow st=0 bufi=5670 size=33864
[mpeg @ 0xaaaac6b69b50] buffer underflow st=0 bufi=7711 size=33864
[mpeg @ 0xaaaac6b69b50] buffer underflow st=0 bufi=9752 size=33864
[mpeg @ 0xaaaac6b69b50] buffer underflow st=0 bufi=11793 size=33864
[mpeg @ 0xaaaac6b69b50] buffer underflow st=0 bufi=13834 size=33864
[mpeg @ 0xaaaac6b69b50] buffer underflow st=0 bufi=15875 size=33864
[mpeg @ 0xaaaac6b69b50] buffer underflow st=0 bufi=17916 size=33864
[mpeg @ 0xaaaac6b69b50] buffer underflow st=0 bufi=19957 size=33864
[mpeg @ 0xaaaac6b69b50] buffer underflow st=0 bufi=21998 size=33864
[mpeg @ 0xaaaac6b69b50] buffer underflow st=0 bufi=24039 size=33864
[mpeg @ 0xaaaac6b69b50] buffer underflow st=0 bufi=26080 size=33864
[mpeg @ 0xaaaac6b69b50] buffer underflow st=0 bufi=28121 size=33864
[mpeg @ 0xaaaac6b69b50] buffer underflow st=0 bufi=30162 size=33864
[mpeg @ 0xaaaac6b69b50] buffer underflow st=0 bufi=32203 size=33864
pts:216000 pts_time:2.4 dts:212400 dts_time:2.36 duration:0 duration_time:0 stream_index:0
[mpeg @ 0xaaaac6b69b50] buffer underflow st=0 bufi=371 size=865
pts:219600 pts_time:2.44 dts:216000 dts_time:2.4 duration:0 duration_time:0 stream_index:0
pts:223200 pts_time:2.48 dts:219600 dts_time:2.44 duration:0 duration_time:0 stream_index:0
pts:226800 pts_time:2.52 dts:223200 dts_time:2.48 duration:0 duration_time:0 stream_index:0
pts:230400 pts_time:2.56 dts:226800 dts_time:2.52 duration:0 duration_time:0 stream_index:0
[mpeg @ 0xaaaac6b69b50] buffer underflow st=0 bufi=235 size=3838
[mpeg @ 0xaaaac6b69b50] buffer underflow st=0 bufi=2276 size=3838
pts:234000 pts_time:2.6 dts:230400 dts_time:2.56 duration:0 duration_time:0 stream_index:0
pts:237600 pts_time:2.64 dts:234000 dts_time:2.6 duration:0 duration_time:0 stream_index:0
pts:241200 pts_time:2.68 dts:237600 dts_time:2.64 duration:0 duration_time:0 stream_index:0
[mpeg @ 0xaaaac6b69b50] buffer underflow st=0 bufi=334 size=1836
pts:244800 pts_time:2.72 dts:241200 dts_time:2.68 duration:0 duration_time:0 stream_index:0
[mpeg @ 0xaaaac6b69b50] buffer underflow st=0 bufi=530 size=1449
pts:248400 pts_time:2.76 dts:244800 dts_time:2.72 duration:0 duration_time:0 stream_index:0
pts:252000 pts_time:2.8 dts:248400 dts_time:2.76 duration:0 duration_time:0 stream_index:0
[mpeg @ 0xaaaac6b69b50] buffer underflow st=0 bufi=1029 size=1810
pts:255600 pts_time:2.84 dts:252000 dts_time:2.8 duration:0 duration_time:0 stream_index:0
[mpeg @ 0xaaaac6b69b50] buffer underflow st=0 bufi=1251 size=37345
[mpeg @ 0xaaaac6b69b50] buffer underflow st=0 bufi=3292 size=37345
[mpeg @ 0xaaaac6b69b50] buffer underflow st=0 bufi=5333 size=37345
[mpeg @ 0xaaaac6b69b50] buffer underflow st=0 bufi=7374 size=37345
[mpeg @ 0xaaaac6b69b50] buffer underflow st=0 bufi=9415 size=37345
[mpeg @ 0xaaaac6b69b50] buffer underflow st=0 bufi=11456 size=37345
[mpeg @ 0xaaaac6b69b50] buffer underflow st=0 bufi=13497 size=37345
[mpeg @ 0xaaaac6b69b50] buffer underflow st=0 bufi=15538 size=37345
[mpeg @ 0xaaaac6b69b50] buffer underflow st=0 bufi=17567 size=37345
[mpeg @ 0xaaaac6b69b50] buffer underflow st=0 bufi=19608 size=37345
[mpeg @ 0xaaaac6b69b50] buffer underflow st=0 bufi=21649 size=37345
[mpeg @ 0xaaaac6b69b50] buffer underflow st=0 bufi=23690 size=37345
[mpeg @ 0xaaaac6b69b50] buffer underflow st=0 bufi=25731 size=37345
[mpeg @ 0xaaaac6b69b50] buffer underflow st=0 bufi=27772 size=37345
[mpeg @ 0xaaaac6b69b50] buffer underflow st=0 bufi=29813 size=37345
[mpeg @ 0xaaaac6b69b50] buffer underflow st=0 bufi=31854 size=37345
[mpeg @ 0xaaaac6b69b50] buffer underflow st=0 bufi=33895 size=37345
[mpeg @ 0xaaaac6b69b50] buffer underflow st=0 bufi=35936 size=37345
pts:259200 pts_time:2.88 dts:255600 dts_time:2.84 duration:0 duration_time:0 stream_index:0
[mpeg @ 0xaaaac6b69b50] buffer underflow st=0 bufi=623 size=2158
pts:262800 pts_time:2.92 dts:259200 dts_time:2.88 duration:0 duration_time:0 stream_index:0
pts:266400 pts_time:2.96 dts:262800 dts_time:2.92 duration:0 duration_time:0 stream_index:0
pts:270000 pts_time:3 dts:266400 dts_time:2.96 duration:0 duration_time:0 stream_index:0
[mpeg @ 0xaaaac6b69b50] buffer underflow st=0 bufi=322 size=4684
[mpeg @ 0xaaaac6b69b50] buffer underflow st=0 bufi=2363 size=4684
[mpeg @ 0xaaaac6b69b50] buffer underflow st=0 bufi=4404 size=4684
pts:273600 pts_time:3.04 dts:270000 dts_time:3 duration:0 duration_time:0 stream_index:0
pts:277200 pts_time:3.08 dts:273600 dts_time:3.04 duration:0 duration_time:0 stream_index:0
pts:280800 pts_time:3.12 dts:277200 dts_time:3.08 duration:0 duration_time:0 stream_index:0
pts:284400 pts_time:3.16 dts:280800 dts_time:3.12 duration:0 duration_time:0 stream_index:0
[mpeg @ 0xaaaac6b69b50] buffer underflow st=0 bufi=723 size=2083
pts:288000 pts_time:3.2 dts:284400 dts_time:3.16 duration:0 duration_time:0 stream_index:0
pts:291600 pts_time:3.24 dts:288000 dts_time:3.2 duration:0 duration_time:0 stream_index:0
[mpeg @ 0xaaaac6b69b50] buffer underflow st=0 bufi=118 size=1390
pts:295200 pts_time:3.28 dts:291600 dts_time:3.24 duration:0 duration_time:0 stream_index:0
pts:298800 pts_time:3.32 dts:295200 dts_time:3.28 duration:0 duration_time:0 stream_index:0
[mpeg @ 0xaaaac6b69b50] buffer underflow st=0 bufi=322 size=23919
[mpeg @ 0xaaaac6b69b50] buffer underflow st=0 bufi=2363 size=23919
[mpeg @ 0xaaaac6b69b50] buffer underflow st=0 bufi=4404 size=23919
[mpeg @ 0xaaaac6b69b50] buffer underflow st=0 bufi=6445 size=23919
[mpeg @ 0xaaaac6b69b50] buffer underflow st=0 bufi=8486 size=23919
[mpeg @ 0xaaaac6b69b50] buffer underflow st=0 bufi=10527 size=23919
[mpeg @ 0xaaaac6b69b50] buffer underflow st=0 bufi=12568 size=23919
[mpeg @ 0xaaaac6b69b50] buffer underflow st=0 bufi=14609 size=23919
[mpeg @ 0xaaaac6b69b50] buffer underflow st=0 bufi=16650 size=23919
[mpeg @ 0xaaaac6b69b50] buffer underflow st=0 bufi=18691 size=23919
[mpeg @ 0xaaaac6b69b50] buffer underflow st=0 bufi=20732 size=23919
[mpeg @ 0xaaaac6b69b50] buffer underflow st=0 bufi=22773 size=23919
pts:302400 pts_time:3.36 dts:298800 dts_time:3.32 duration:0 duration_time:0 stream_index:0
pts:306000 pts_time:3.4 dts:302400 dts_time:3.36 duration:0 duration_time:0 stream_index:0
[mpeg @ 0xaaaac6b69b50] buffer underflow st=0 bufi=810 size=1056
pts:309600 pts_time:3.44 dts:306000 dts_time:3.4 duration:0 duration_time:0 stream_index:0
pts:313200 pts_time:3.48 dts:309600 dts_time:3.44 duration:0 duration_time:0 stream_index:0
pts:316800 pts_time:3.52 dts:313200 dts_time:3.48 duration:0 duration_time:0 stream_index:0
pts:320400 pts_time:3.56 dts:316800 dts_time:3.52 duration:0 duration_time:0 stream_index:0
[mpeg @ 0xaaaac6b69b50] buffer underflow st=0 bufi=7 size=563
pts:324000 pts_time:3.6 dts:320400 dts_time:3.56 duration:0 duration_time:0 stream_index:0
[mpeg @ 0xaaaac6b69b50] buffer underflow st=0 bufi=1476 size=8858
[mpeg @ 0xaaaac6b69b50] buffer underflow st=0 bufi=3517 size=8858
[mpeg @ 0xaaaac6b69b50] buffer underflow st=0 bufi=5558 size=8858
[mpeg @ 0xaaaac6b69b50] buffer underflow st=0 bufi=7599 size=8858
pts:327600 pts_time:3.64 dts:324000 dts_time:3.6 duration:0 duration_time:0 stream_index:0
pts:331200 pts_time:3.68 dts:327600 dts_time:3.64 duration:0 duration_time:0 stream_index:0
pts:334800 pts_time:3.72 dts:331200 dts_time:3.68 duration:0 duration_time:0 stream_index:0
pts:338400 pts_time:3.76 dts:334800 dts_time:3.72 duration:0 duration_time:0 stream_index:0
[mpeg @ 0xaaaac6b69b50] buffer underflow st=0 bufi=74 size=700
pts:342000 pts_time:3.8 dts:338400 dts_time:3.76 duration:0 duration_time:0 stream_index:0
[mpeg @ 0xaaaac6b69b50] buffer underflow st=0 bufi=1406 size=29959
[mpeg @ 0xaaaac6b69b50] buffer underflow st=0 bufi=3447 size=29959
[mpeg @ 0xaaaac6b69b50] buffer underflow st=0 bufi=5488 size=29959
[mpeg @ 0xaaaac6b69b50] buffer underflow st=0 bufi=7529 size=29959
[mpeg @ 0xaaaac6b69b50] buffer underflow st=0 bufi=9570 size=29959
[mpeg @ 0xaaaac6b69b50] buffer underflow st=0 bufi=11611 size=29959
[mpeg @ 0xaaaac6b69b50] buffer underflow st=0 bufi=13652 size=29959
[mpeg @ 0xaaaac6b69b50] buffer underflow st=0 bufi=15693 size=29959
[mpeg @ 0xaaaac6b69b50] buffer underflow st=0 bufi=17734 size=29959
[mpeg @ 0xaaaac6b69b50] buffer underflow st=0 bufi=19775 size=29959
[mpeg @ 0xaaaac6b69b50] buffer underflow st=0 bufi=21816 size=29959
[mpeg @ 0xaaaac6b69b50] buffer underflow st=0 bufi=23857 size=29959
[mpeg @ 0xaaaac6b69b50] buffer underflow st=0 bufi=25898 size=29959
[mpeg @ 0xaaaac6b69b50] buffer underflow st=0 bufi=27939 size=29959
pts:345600 pts_time:3.84 dts:342000 dts_time:3.8 duration:0 duration_time:0 stream_index:0
[mpeg @ 0xaaaac6b69b50] buffer underflow st=0 bufi=12 size=1043
pts:349200 pts_time:3.88 dts:345600 dts_time:3.84 duration:0 duration_time:0 stream_index:0
pts:352800 pts_time:3.92 dts:349200 dts_time:3.88 duration:0 duration_time:0 stream_index:0
pts:356400 pts_time:3.96 dts:352800 dts_time:3.92 duration:0 duration_time:0 stream_index:0
[mpeg @ 0xaaaac6b69b50] buffer underflow st=0 bufi=287 size=483
pts:360000 pts_time:4 dts:356400 dts_time:3.96 duration:0 duration_time:0 stream_index:0
[mpeg @ 0xaaaac6b69b50] buffer underflow st=0 bufi=1836 size=25744
[mpeg @ 0xaaaac6b69b50] buffer underflow st=0 bufi=3865 size=25744
[mpeg @ 0xaaaac6b69b50] buffer underflow st=0 bufi=5906 size=25744
[mpeg @ 0xaaaac6b69b50] buffer underflow st=0 bufi=7947 size=25744
[mpeg @ 0xaaaac6b69b50] buffer underflow st=0 bufi=9988 size=25744
[mpeg @ 0xaaaac6b69b50] buffer underflow st=0 bufi=12029 size=25744
[mpeg @ 0xaaaac6b69b50] buffer underflow st=0 bufi=14070 size=25744
[mpeg @ 0xaaaac6b69b50] buffer underflow st=0 bufi=16111 size=25744
[mpeg @ 0xaaaac6b69b50] buffer underflow st=0 bufi=18152 size=25744
[mpeg @ 0xaaaac6b69b50] buffer underflow st=0 bufi=20193 size=25744
[mpeg @ 0xaaaac6b69b50] buffer underflow st=0 bufi=22234 size=25744
[mpeg @ 0xaaaac6b69b50] buffer underflow st=0 bufi=24275 size=25744
pts:363600 pts_time:4.04 dts:360000 dts_time:4 duration:0 duration_time:0 stream_index:0
[mpeg @ 0xaaaac6b69b50] buffer underflow st=0 bufi=563 size=6542
[mpeg @ 0xaaaac6b69b50] buffer underflow st=0 bufi=2604 size=6542
[mpeg @ 0xaaaac6b69b50] buffer underflow st=0 bufi=4645 size=6542
pts:367200 pts_time:4.08 dts:363600 dts_time:4.04 duration:0 duration_time:0 stream_index:0
[mpeg @ 0xaaaac6b69b50] buffer underflow st=0 bufi=135 size=4989
[mpeg @ 0xaaaac6b69b50] buffer underflow st=0 bufi=2176 size=4989
[mpeg @ 0xaaaac6b69b50] buffer underflow st=0 bufi=4217 size=4989
pts:370800 pts_time:4.12 dts:367200 dts_time:4.08 duration:0 duration_time:0 stream_index:0
[mpeg @ 0xaaaac6b69b50] buffer underflow st=0 bufi=1260 size=3512
[mpeg @ 0xaaaac6b69b50] buffer underflow st=0 bufi=3301 size=3512
pts:374400 pts_time:4.16 dts:370800 dts_time:4.12 duration:0 duration_time:0 stream_index:0
[mpeg @ 0xaaaac6b69b50] buffer underflow st=0 bufi=1821 size=2218
pts:378000 pts_time:4.2 dts:374400 dts_time:4.16 duration:0 duration_time:0 stream_index:0
[mpeg @ 0xaaaac6b69b50] buffer underflow st=0 bufi=1635 size=3551
pts:381600 pts_time:4.24 dts:378000 dts_time:4.2 duration:0 duration_time:0 stream_index:0
[mpeg @ 0xaaaac6b69b50] buffer underflow st=0 bufi=116 size=2822
[mpeg @ 0xaaaac6b69b50] buffer underflow st=0 bufi=2157 size=2822
pts:385200 pts_time:4.28 dts:381600 dts_time:4.24 duration:0 duration_time:0 stream_index:0
[mpeg @ 0xaaaac6b69b50] buffer underflow st=0 bufi=1367 size=12248
[mpeg @ 0xaaaac6b69b50] buffer underflow st=0 bufi=3408 size=12248
[mpeg @ 0xaaaac6b69b50] buffer underflow st=0 bufi=5449 size=12248
[mpeg @ 0xaaaac6b69b50] buffer underflow st=0 bufi=7490 size=12248
[mpeg @ 0xaaaac6b69b50] buffer underflow st=0 bufi=9531 size=12248
[mpeg @ 0xaaaac6b69b50] buffer underflow st=0 bufi=11572 size=12248
pts:388800 pts_time:4.32 dts:385200 dts_time:4.28 duration:0 duration_time:0 stream_index:0
[mpeg @ 0xaaaac6b69b50] buffer underflow st=0 bufi=1356 size=3781
[mpeg @ 0xaaaac6b69b50] buffer underflow st=0 bufi=3397 size=3781
pts:392400 pts_time:4.36 dts:388800 dts_time:4.32 duration:0 duration_time:0 stream_index:0
[mpeg @ 0xaaaac6b69b50] buffer underflow st=0 bufi=1648 size=2196
pts:396000 pts_time:4.4 dts:392400 dts_time:4.36 duration:0 duration_time:0 stream_index:0
[mpeg @ 0xaaaac6b69b50] buffer underflow st=0 bufi=1484 size=3178
pts:399600 pts_time:4.44 dts:396000 dts_time:4.4 duration:0 duration_time:0 stream_index:0
[mpeg @ 0xaaaac6b69b50] buffer underflow st=0 bufi=338 size=1532
pts:403200 pts_time:4.48 dts:399600 dts_time:4.44 duration:0 duration_time:0 stream_index:0
[mpeg @ 0xaaaac6b69b50] buffer underflow st=0 bufi=838 size=2752
pts:406800 pts_time:4.52 dts:403200 dts_time:4.48 duration:0 duration_time:0 stream_index:0
[mpeg @ 0xaaaac6b69b50] buffer underflow st=0 bufi=118 size=3080
[mpeg @ 0xaaaac6b69b50] buffer underflow st=0 bufi=2159 size=3080
pts:410400 pts_time:4.56 dts:406800 dts_time:4.52 duration:0 duration_time:0 stream_index:0
[mpeg @ 0xaaaac6b69b50] buffer underflow st=0 bufi=1111 size=1841
pts:414000 pts_time:4.6 dts:410400 dts_time:4.56 duration:0 duration_time:0 stream_index:0
[mpeg @ 0xaaaac6b69b50] buffer underflow st=0 bufi=1302 size=2231
pts:417600 pts_time:4.64 dts:414000 dts_time:4.6 duration:0 duration_time:0 stream_index:0
[mpeg @ 0xaaaac6b69b50] buffer underflow st=0 bufi=1103 size=2401
pts:421200 pts_time:4.68 dts:417600 dts_time:4.64 duration:0 duration_time:0 stream_index:0
[mpeg @ 0xaaaac6b69b50] buffer underflow st=0 bufi=734 size=1949
pts:424800 pts_time:4.72 dts:421200 dts_time:4.68 duration:0 duration_time:0 stream_index:0
[mpeg @ 0xaaaac6b69b50] buffer underflow st=0 bufi=817 size=2511
pts:428400 pts_time:4.76 dts:424800 dts_time:4.72 duration:0 duration_time:0 stream_index:0
[mpeg @ 0xaaaac6b69b50] buffer underflow st=0 bufi=338 size=9132
[mpeg @ 0xaaaac6b69b50] buffer underflow st=0 bufi=2379 size=9132
[mpeg @ 0xaaaac6b69b50] buffer underflow st=0 bufi=4420 size=9132
[mpeg @ 0xaaaac6b69b50] buffer underflow st=0 bufi=6461 size=9132
[mpeg @ 0xaaaac6b69b50] buffer underflow st=0 bufi=8502 size=9132
pts:432000 pts_time:4.8 dts:428400 dts_time:4.76 duration:0 duration_time:0 stream_index:0
[mpeg @ 0xaaaac6b69b50] buffer underflow st=0 bufi=1402 size=1886
pts:435600 pts_time:4.84 dts:432000 dts_time:4.8 duration:0 duration_time:0 stream_index:0
[mpeg @ 0xaaaac6b69b50] buffer underflow st=0 bufi=1548 size=2108
pts:439200 pts_time:4.88 dts:435600 dts_time:4.84 duration:0 duration_time:0 stream_index:0
[mpeg @ 0xaaaac6b69b50] buffer underflow st=0 bufi=1472 size=2802
pts:442800 pts_time:4.92 dts:439200 dts_time:4.88 duration:0 duration_time:0 stream_index:0
[mpeg @ 0xaaaac6b69b50] buffer underflow st=0 bufi=702 size=1694
pts:446400 pts_time:4.96 dts:442800 dts_time:4.92 duration:0 duration_time:0 stream_index:0
[mpeg @ 0xaaaac6b69b50] buffer underflow st=0 bufi=1040 size=1866
pts:450000 pts_time:5 dts:446400 dts_time:4.96 duration:0 duration_time:0 stream_index:0
[mpeg @ 0xaaaac6b69b50] buffer underflow st=0 bufi=1179 size=2549
pts:453600 pts_time:5.04 dts:450000 dts_time:5 duration:0 duration_time:0 stream_index:0
[mpeg @ 0xaaaac6b69b50] buffer underflow st=0 bufi=662 size=2042
pts:457200 pts_time:5.08 dts:453600 dts_time:5.04 duration:0 duration_time:0 stream_index:0
[mpeg @ 0xaaaac6b69b50] buffer underflow st=0 bufi=652 size=2216
pts:460800 pts_time:5.12 dts:457200 dts_time:5.08 duration:0 duration_time:0 stream_index:0
[mpeg @ 0xaaaac6b69b50] buffer underflow st=0 bufi=468 size=2073
pts:464400 pts_time:5.16 dts:460800 dts_time:5.12 duration:0 duration_time:0 stream_index:0
[mpeg @ 0xaaaac6b69b50] buffer underflow st=0 bufi=427 size=2986
[mpeg @ 0xaaaac6b69b50] buffer underflow st=0 bufi=2468 size=2986
pts:468000 pts_time:5.2 dts:464400 dts_time:5.16 duration:0 duration_time:0 stream_index:0
[mpeg @ 0xaaaac6b69b50] buffer underflow st=0 bufi=1514 size=2357
pts:471600 pts_time:5.24 dts:468000 dts_time:5.2 duration:0 duration_time:0 stream_index:0
[mpeg @ 0xaaaac6b69b50] buffer underflow st=0 bufi=1189 size=10784
[mpeg @ 0xaaaac6b69b50] buffer underflow st=0 bufi=3230 size=10784
[mpeg @ 0xaaaac6b69b50] buffer underflow st=0 bufi=5271 size=10784
[mpeg @ 0xaaaac6b69b50] buffer underflow st=0 bufi=7312 size=10784
[mpeg @ 0xaaaac6b69b50] buffer underflow st=0 bufi=9353 size=10784
pts:475200 pts_time:5.28 dts:471600 dts_time:5.24 duration:0 duration_time:0 stream_index:0
[mpeg @ 0xaaaac6b69b50] buffer underflow st=0 bufi=601 size=3472
[mpeg @ 0xaaaac6b69b50] buffer underflow st=0 bufi=2642 size=3472
pts:478800 pts_time:5.32 dts:475200 dts_time:5.28 duration:0 duration_time:0 stream_index:0
[mpeg @ 0xaaaac6b69b50] buffer underflow st=0 bufi=1202 size=2350
pts:482400 pts_time:5.36 dts:478800 dts_time:5.32 duration:0 duration_time:0 stream_index:0
[mpeg @ 0xaaaac6b69b50] buffer underflow st=0 bufi=884 size=3399
[mpeg @ 0xaaaac6b69b50] buffer underflow st=0 bufi=2925 size=3399
pts:486000 pts_time:5.4 dts:482400 dts_time:5.36 duration:0 duration_time:0 stream_index:0
[mpeg @ 0xaaaac6b69b50] buffer underflow st=0 bufi=1558 size=2065
pts:489600 pts_time:5.44 dts:486000 dts_time:5.4 duration:0 duration_time:0 stream_index:0
[mpeg @ 0xaaaac6b69b50] buffer underflow st=0 bufi=1525 size=1997
pts:493200 pts_time:5.48 dts:489600 dts_time:5.44 duration:0 duration_time:0 stream_index:0
[mpeg @ 0xaaaac6b69b50] buffer underflow st=0 bufi=1560 size=3455
pts:496800 pts_time:5.52 dts:493200 dts_time:5.48 duration:0 duration_time:0 stream_index:0
[mpeg @ 0xaaaac6b69b50] buffer underflow st=0 bufi=137 size=2210
[mpeg @ 0xaaaac6b69b50] buffer underflow st=0 bufi=2178 size=2210
pts:500400 pts_time:5.56 dts:496800 dts_time:5.52 duration:0 duration_time:0 stream_index:0
[mpeg @ 0xaaaac6b69b50] buffer underflow st=0 bufi=2000 size=2768
pts:504000 pts_time:5.6 dts:500400 dts_time:5.56 duration:0 duration_time:0 stream_index:0
[mpeg @ 0xaaaac6b69b50] buffer underflow st=0 bufi=1264 size=2367
pts:507600 pts_time:5.64 dts:504000 dts_time:5.6 duration:0 duration_time:0 stream_index:0
[mpeg @ 0xaaaac6b69b50] buffer underflow st=0 bufi=929 size=2142
pts:511200 pts_time:5.68 dts:507600 dts_time:5.64 duration:0 duration_time:0 stream_index:0
[mpeg @ 0xaaaac6b69b50] buffer underflow st=0 bufi=819 size=2380
pts:514800 pts_time:5.72 dts:511200 dts_time:5.68 duration:0 duration_time:0 stream_index:0
[mpeg @ 0xaaaac6b69b50] buffer underflow st=0 bufi=471 size=8962
[mpeg @ 0xaaaac6b69b50] buffer underflow st=0 bufi=2512 size=8962
[mpeg @ 0xaaaac6b69b50] buffer underflow st=0 bufi=4553 size=8962
[mpeg @ 0xaaaac6b69b50] buffer underflow st=0 bufi=6594 size=8962
[mpeg @ 0xaaaac6b69b50] buffer underflow st=0 bufi=8635 size=8962
pts:518400 pts_time:5.76 dts:514800 dts_time:5.72 duration:0 duration_time:0 stream_index:0
[mpeg @ 0xaaaac6b69b50] buffer underflow st=0 bufi=1705 size=1870
pts:522000 pts_time:5.8 dts:518400 dts_time:5.76 duration:0 duration_time:0 stream_index:0
[mpeg @ 0xaaaac6b69b50] buffer underflow st=0 bufi=1867 size=2064
pts:525600 pts_time:5.84 dts:522000 dts_time:5.8 duration:0 duration_time:0 stream_index:0
[mpeg @ 0xaaaac6b69b50] buffer underflow st=0 bufi=1835 size=2759
pts:529200 pts_time:5.88 dts:525600 dts_time:5.84 duration:0 duration_time:0 stream_index:0
[mpeg @ 0xaaaac6b69b50] buffer underflow st=0 bufi=1108 size=1679
pts:532800 pts_time:5.92 dts:529200 dts_time:5.88 duration:0 duration_time:0 stream_index:0
[mpeg @ 0xaaaac6b69b50] buffer underflow st=0 bufi=1461 size=1903
pts:536400 pts_time:5.96 dts:532800 dts_time:5.92 duration:0 duration_time:0 stream_index:0
[mpeg @ 0xaaaac6b69b50] buffer underflow st=0 bufi=1590 size=2575
pts:540000 pts_time:6 dts:536400 dts_time:5.96 duration:0 duration_time:0 stream_index:0
[mpeg @ 0xaaaac6b69b50] buffer underflow st=0 bufi=1047 size=2145
pts:543600 pts_time:6.04 dts:540000 dts_time:6 duration:0 duration_time:0 stream_index:0
[mpeg @ 0xaaaac6b69b50] buffer underflow st=0 bufi=934 size=2179
pts:547200 pts_time:6.08 dts:543600 dts_time:6.04 duration:0 duration_time:0 stream_index:0
[mpeg @ 0xaaaac6b69b50] buffer underflow st=0 bufi=787 size=1688
pts:550800 pts_time:6.12 dts:547200 dts_time:6.08 duration:0 duration_time:0 stream_index:0
[mpeg @ 0xaaaac6b69b50] buffer underflow st=0 bufi=1131 size=2632
pts:554400 pts_time:6.16 dts:550800 dts_time:6.12 duration:0 duration_time:0 stream_index:0
[mpeg @ 0xaaaac6b69b50] buffer underflow st=0 bufi=531 size=1782
pts:558000 pts_time:6.2 dts:554400 dts_time:6.16 duration:0 duration_time:0 stream_index:0
[mpeg @ 0xaaaac6b69b50] buffer underflow st=0 bufi=781 size=10423
[mpeg @ 0xaaaac6b69b50] buffer underflow st=0 bufi=2822 size=10423
[mpeg @ 0xaaaac6b69b50] buffer underflow st=0 bufi=4863 size=10423
[mpeg @ 0xaaaac6b69b50] buffer underflow st=0 bufi=6904 size=10423
[mpeg @ 0xaaaac6b69b50] buffer underflow st=0 bufi=8945 size=10423
pts:561600 pts_time:6.24 dts:558000 dts_time:6.2 duration:0 duration_time:0 stream_index:0
[mpeg @ 0xaaaac6b69b50] buffer underflow st=0 bufi=554 size=2843
[mpeg @ 0xaaaac6b69b50] buffer underflow st=0 bufi=2595 size=2843
pts:565200 pts_time:6.28 dts:561600 dts_time:6.24 duration:0 duration_time:0 stream_index:0
[mpeg @ 0xaaaac6b69b50] buffer underflow st=0 bufi=1784 size=2054
pts:568800 pts_time:6.32 dts:565200 dts_time:6.28 duration:0 duration_time:0 stream_index:0
[mpeg @ 0xaaaac6b69b50] buffer underflow st=0 bufi=1762 size=2850
pts:572400 pts_time:6.36 dts:568800 dts_time:6.32 duration:0 duration_time:0 stream_index:0
[mpeg @ 0xaaaac6b69b50] buffer underflow st=0 bufi=944 size=1783
pts:576000 pts_time:6.4 dts:572400 dts_time:6.36 duration:0 duration_time:0 stream_index:0
[mpeg @ 0xaaaac6b69b50] buffer underflow st=0 bufi=1181 size=1607
pts:579600 pts_time:6.44 dts:576000 dts_time:6.4 duration:0 duration_time:0 stream_index:0
[mpeg @ 0xaaaac6b69b50] buffer underflow st=0 bufi=1606 size=2830
pts:583200 pts_time:6.48 dts:579600 dts_time:6.44 duration:0 duration_time:0 stream_index:0
[mpeg @ 0xaaaac6b69b50] buffer underflow st=0 bufi=808 size=1824
pts:586800 pts_time:6.52 dts:583200 dts_time:6.48 duration:0 duration_time:0 stream_index:0
[mpeg @ 0xaaaac6b69b50] buffer underflow st=0 bufi=1016 size=2322
pts:590400 pts_time:6.56 dts:586800 dts_time:6.52 duration:0 duration_time:0 stream_index:0
[mpeg @ 0xaaaac6b69b50] buffer underflow st=0 bufi=726 size=1928
pts:594000 pts_time:6.6 dts:590400 dts_time:6.56 duration:0 duration_time:0 stream_index:0
[mpeg @ 0xaaaac6b69b50] buffer underflow st=0 bufi=830 size=2349
pts:597600 pts_time:6.64 dts:594000 dts_time:6.6 duration:0 duration_time:0 stream_index:0
[mpeg @ 0xaaaac6b69b50] buffer underflow st=0 bufi=513 size=2110
pts:601200 pts_time:6.68 dts:597600 dts_time:6.64 duration:0 duration_time:0 stream_index:0
[mpeg @ 0xaaaac6b69b50] buffer underflow st=0 bufi=435 size=8958
[mpeg @ 0xaaaac6b69b50] buffer underflow st=0 bufi=2476 size=8958
[mpeg @ 0xaaaac6b69b50] buffer underflow st=0 bufi=4517 size=8958
[mpeg @ 0xaaaac6b69b50] buffer underflow st=0 bufi=6558 size=8958
[mpeg @ 0xaaaac6b69b50] buffer underflow st=0 bufi=8599 size=8958
pts:604800 pts_time:6.72 dts:601200 dts_time:6.68 duration:0 duration_time:0 stream_index:0
[mpeg @ 0xaaaac6b69b50] buffer underflow st=0 bufi=1673 size=1835
pts:608400 pts_time:6.76 dts:604800 dts_time:6.72 duration:0 duration_time:0 stream_index:0
[mpeg @ 0xaaaac6b69b50] buffer underflow st=0 bufi=1870 size=2036
pts:612000 pts_time:6.8 dts:608400 dts_time:6.76 duration:0 duration_time:0 stream_index:0
[mpeg @ 0xaaaac6b69b50] buffer underflow st=0 bufi=1866 size=2707
pts:615600 pts_time:6.84 dts:612000 dts_time:6.8 duration:0 duration_time:0 stream_index:0
[mpeg @ 0xaaaac6b69b50] buffer underflow st=0 bufi=1191 size=1685
pts:619200 pts_time:6.88 dts:615600 dts_time:6.84 duration:0 duration_time:0 stream_index:0
[mpeg @ 0xaaaac6b69b50] buffer underflow st=0 bufi=1538 size=1870
pts:622800 pts_time:6.92 dts:619200 dts_time:6.88 duration:0 duration_time:0 stream_index:0
[mpeg @ 0xaaaac6b69b50] buffer underflow st=0 bufi=1700 size=2537
pts:626400 pts_time:6.96 dts:622800 dts_time:6.92 duration:0 duration_time:0 stream_index:0
[mpeg @ 0xaaaac6b69b50] buffer underflow st=0 bufi=1195 size=2052
pts:630000 pts_time:7 dts:626400 dts_time:6.96 duration:0 duration_time:0 stream_index:0
[mpeg @ 0xaaaac6b69b50] buffer underflow st=0 bufi=1175 size=2262
pts:633600 pts_time:7.04 dts:630000 dts_time:7 duration:0 duration_time:0 stream_index:0
[mpeg @ 0xaaaac6b69b50] buffer underflow st=0 bufi=945 size=1685
pts:637200 pts_time:7.08 dts:633600 dts_time:7.04 duration:0 duration_time:0 stream_index:0
[mpeg @ 0xaaaac6b69b50] buffer underflow st=0 bufi=1292 size=2521
pts:640800 pts_time:7.12 dts:637200 dts_time:7.08 duration:0 duration_time:0 stream_index:0
[mpeg @ 0xaaaac6b69b50] buffer underflow st=0 bufi=803 size=1878
pts:644400 pts_time:7.16 dts:640800 dts_time:7.12 duration:0 duration_time:0 stream_index:0
[mpeg @ 0xaaaac6b69b50] buffer underflow st=0 bufi=957 size=10779
[mpeg @ 0xaaaac6b69b50] buffer underflow st=0 bufi=2998 size=10779
[mpeg @ 0xaaaac6b69b50] buffer underflow st=0 bufi=5039 size=10779
[mpeg @ 0xaaaac6b69b50] buffer underflow st=0 bufi=7080 size=10779
[mpeg @ 0xaaaac6b69b50] buffer underflow st=0 bufi=9121 size=10779
pts:648000 pts_time:7.2 dts:644400 dts_time:7.16 duration:0 duration_time:0 stream_index:0
[mpeg @ 0xaaaac6b69b50] buffer underflow st=0 bufi=374 size=3415
[mpeg @ 0xaaaac6b69b50] buffer underflow st=0 bufi=2415 size=3415
pts:651600 pts_time:7.24 dts:648000 dts_time:7.2 duration:0 duration_time:0 stream_index:0
[mpeg @ 0xaaaac6b69b50] buffer underflow st=0 bufi=1032 size=2343
pts:655200 pts_time:7.28 dts:651600 dts_time:7.24 duration:0 duration_time:0 stream_index:0
[mpeg @ 0xaaaac6b69b50] buffer underflow st=0 bufi=721 size=3421
[mpeg @ 0xaaaac6b69b50] buffer underflow st=0 bufi=2762 size=3421
pts:658800 pts_time:7.32 dts:655200 dts_time:7.28 duration:0 duration_time:0 stream_index:0
[mpeg @ 0xaaaac6b69b50] buffer underflow st=0 bufi=1373 size=2102
pts:662400 pts_time:7.36 dts:658800 dts_time:7.32 duration:0 duration_time:0 stream_index:0
[mpeg @ 0xaaaac6b69b50] buffer underflow st=0 bufi=1303 size=2029
pts:666000 pts_time:7.4 dts:662400 dts_time:7.36 duration:0 duration_time:0 stream_index:0
[mpeg @ 0xaaaac6b69b50] buffer underflow st=0 bufi=1306 size=3437
[mpeg @ 0xaaaac6b69b50] buffer underflow st=0 bufi=3347 size=3437
pts:669600 pts_time:7.44 dts:666000 dts_time:7.4 duration:0 duration_time:0 stream_index:0
[mpeg @ 0xaaaac6b69b50] buffer underflow st=0 bufi=1942 size=2235
pts:673200 pts_time:7.48 dts:669600 dts_time:7.44 duration:0 duration_time:0 stream_index:0
[mpeg @ 0xaaaac6b69b50] buffer underflow st=0 bufi=1739 size=2779
pts:676800 pts_time:7.52 dts:673200 dts_time:7.48 duration:0 duration_time:0 stream_index:0
[mpeg @ 0xaaaac6b69b50] buffer underflow st=0 bufi=992 size=2835
pts:680400 pts_time:7.56 dts:676800 dts_time:7.52 duration:0 duration_time:0 stream_index:0
[mpeg @ 0xaaaac6b69b50] buffer underflow st=0 bufi=189 size=2651
[mpeg @ 0xaaaac6b69b50] buffer underflow st=0 bufi=2230 size=2651
pts:684000 pts_time:7.6 dts:680400 dts_time:7.56 duration:0 duration_time:0 stream_index:0
[mpeg @ 0xaaaac6b69b50] buffer underflow st=0 bufi=1611 size=2986
pts:687600 pts_time:7.64 dts:684000 dts_time:7.6 duration:0 duration_time:0 stream_index:0
[mpeg @ 0xaaaac6b69b50] buffer underflow st=0 bufi=657 size=9022
[mpeg @ 0xaaaac6b69b50] buffer underflow st=0 bufi=2698 size=9022
[mpeg @ 0xaaaac6b69b50] buffer underflow st=0 bufi=4739 size=9022
[mpeg @ 0xaaaac6b69b50] buffer underflow st=0 bufi=6780 size=9022
[mpeg @ 0xaaaac6b69b50] buffer underflow st=0 bufi=8821 size=9022
pts:691200 pts_time:7.68 dts:687600 dts_time:7.64 duration:0 duration_time:0 stream_index:0
pts:694800 pts_time:7.72 dts:691200 dts_time:7.68 duration:0 duration_time:0 stream_index:0
[mpeg @ 0xaaaac6b69b50] buffer underflow st=0 bufi=472 size=1619
pts:698400 pts_time:7.76 dts:694800 dts_time:7.72 duration:0 duration_time:0 stream_index:0
[mpeg @ 0xaaaac6b69b50] buffer underflow st=0 bufi=885 size=2342
pts:702000 pts_time:7.8 dts:698400 dts_time:7.76 duration:0 duration_time:0 stream_index:0
[mpeg @ 0xaaaac6b69b50] buffer underflow st=0 bufi=575 size=1519
pts:705600 pts_time:7.84 dts:702000 dts_time:7.8 duration:0 duration_time:0 stream_index:0
[mpeg @ 0xaaaac6b69b50] buffer underflow st=0 bufi=1088 size=1604
pts:709200 pts_time:7.88 dts:705600 dts_time:7.84 duration:0 duration_time:0 stream_index:0
[mpeg @ 0xaaaac6b69b50] buffer underflow st=0 bufi=1504 size=2250
pts:712800 pts_time:7.92 dts:709200 dts_time:7.88 duration:0 duration_time:0 stream_index:0
[mpeg @ 0xaaaac6b69b50] buffer underflow st=0 bufi=1286 size=1744
pts:716400 pts_time:7.96 dts:712800 dts_time:7.92 duration:0 duration_time:0 stream_index:0
[mpeg @ 0xaaaac6b69b50] buffer underflow st=0 bufi=1574 size=2019
pts:720000 pts_time:8 dts:716400 dts_time:7.96 duration:0 duration_time:0 stream_index:0
[mpeg @ 0xaaaac6b69b50] buffer underflow st=0 bufi=1587 size=1875
pts:723600 pts_time:8.04 dts:720000 dts_time:8 duration:0 duration_time:0 stream_index:0
[mpeg @ 0xaaaac6b69b50] buffer underflow st=0 bufi=1744 size=2728
pts:727200 pts_time:8.08 dts:723600 dts_time:8.04 duration:0 duration_time:0 stream_index:0
[mpeg @ 0xaaaac6b69b50] buffer underflow st=0 bufi=1048 size=1925
pts:730800 pts_time:8.12 dts:727200 dts_time:8.08 duration:0 duration_time:0 stream_index:0
[mpeg @ 0xaaaac6b69b50] buffer underflow st=0 bufi=1155 size=10516
[mpeg @ 0xaaaac6b69b50] buffer underflow st=0 bufi=3196 size=10516
[mpeg @ 0xaaaac6b69b50] buffer underflow st=0 bufi=5237 size=10516
[mpeg @ 0xaaaac6b69b50] buffer underflow st=0 bufi=7278 size=10516
[mpeg @ 0xaaaac6b69b50] buffer underflow st=0 bufi=9319 size=10516
pts:734400 pts_time:8.16 dts:730800 dts_time:8.12 duration:0 duration_time:0 stream_index:0
[mpeg @ 0xaaaac6b69b50] buffer underflow st=0 bufi=835 size=2862
pts:738000 pts_time:8.2 dts:734400 dts_time:8.16 duration:0 duration_time:0 stream_index:0
[mpeg @ 0xaaaac6b69b50] buffer underflow st=0 bufi=5 size=2062
[mpeg @ 0xaaaac6b69b50] buffer underflow st=0 bufi=2046 size=2062
pts:741600 pts_time:8.24 dts:738000 dts_time:8.2 duration:0 duration_time:0 stream_index:0
[mpeg @ 0xaaaac6b69b50] buffer underflow st=0 bufi=2016 size=2890
pts:745200 pts_time:8.28 dts:741600 dts_time:8.24 duration:0 duration_time:0 stream_index:0
[mpeg @ 0xaaaac6b69b50] buffer underflow st=0 bufi=1158 size=1834
pts:748800 pts_time:8.32 dts:745200 dts_time:8.28 duration:0 duration_time:0 stream_index:0
[mpeg @ 0xaaaac6b69b50] buffer underflow st=0 bufi=1356 size=1665
pts:752400 pts_time:8.36 dts:748800 dts_time:8.32 duration:0 duration_time:0 stream_index:0
[mpeg @ 0xaaaac6b69b50] buffer underflow st=0 bufi=1723 size=2722
pts:756000 pts_time:8.4 dts:752400 dts_time:8.36 duration:0 duration_time:0 stream_index:0
[mpeg @ 0xaaaac6b69b50] buffer underflow st=0 bufi=1033 size=1777
pts:759600 pts_time:8.44 dts:756000 dts_time:8.4 duration:0 duration_time:0 stream_index:0
[mpeg @ 0xaaaac6b69b50] buffer underflow st=0 bufi=1288 size=2440
pts:763200 pts_time:8.48 dts:759600 dts_time:8.44 duration:0 duration_time:0 stream_index:0
[mpeg @ 0xaaaac6b69b50] buffer underflow st=0 bufi=880 size=1958
pts:766800 pts_time:8.52 dts:763200 dts_time:8.48 duration:0 duration_time:0 stream_index:0
[mpeg @ 0xaaaac6b69b50] buffer underflow st=0 bufi=954 size=2253
pts:770400 pts_time:8.56 dts:766800 dts_time:8.52 duration:0 duration_time:0 stream_index:0
[mpeg @ 0xaaaac6b69b50] buffer underflow st=0 bufi=733 size=2224
pts:774000 pts_time:8.6 dts:770400 dts_time:8.56 duration:0 duration_time:0 stream_index:0
[mpeg @ 0xaaaac6b69b50] buffer underflow st=0 bufi=541 size=9004
[mpeg @ 0xaaaac6b69b50] buffer underflow st=0 bufi=2582 size=9004
[mpeg @ 0xaaaac6b69b50] buffer underflow st=0 bufi=4623 size=9004
[mpeg @ 0xaaaac6b69b50] buffer underflow st=0 bufi=6664 size=9004
[mpeg @ 0xaaaac6b69b50] buffer underflow st=0 bufi=8705 size=9004
pts:777600 pts_time:8.64 dts:774000 dts_time:8.6 duration:0 duration_time:0 stream_index:0
[mpeg @ 0xaaaac6b69b50] buffer underflow st=0 bufi=1733 size=1834
pts:781200 pts_time:8.68 dts:777600 dts_time:8.64 duration:0 duration_time:0 stream_index:0
[mpeg @ 0xaaaac6b69b50] buffer underflow st=0 bufi=1931 size=2037
pts:784800 pts_time:8.72 dts:781200 dts_time:8.68 duration:0 duration_time:0 stream_index:0
[mpeg @ 0xaaaac6b69b50] buffer underflow st=0 bufi=1926 size=2776
pts:788400 pts_time:8.76 dts:784800 dts_time:8.72 duration:0 duration_time:0 stream_index:0
[mpeg @ 0xaaaac6b69b50] buffer underflow st=0 bufi=1182 size=1690
pts:792000 pts_time:8.8 dts:788400 dts_time:8.76 duration:0 duration_time:0 stream_index:0
[mpeg @ 0xaaaac6b69b50] buffer underflow st=0 bufi=1524 size=1945
pts:795600 pts_time:8.84 dts:792000 dts_time:8.8 duration:0 duration_time:0 stream_index:0
[mpeg @ 0xaaaac6b69b50] buffer underflow st=0 bufi=1611 size=2529
pts:799200 pts_time:8.88 dts:795600 dts_time:8.84 duration:0 duration_time:0 stream_index:0
[mpeg @ 0xaaaac6b69b50] buffer underflow st=0 bufi=1114 size=2057
pts:802800 pts_time:8.92 dts:799200 dts_time:8.88 duration:0 duration_time:0 stream_index:0
[mpeg @ 0xaaaac6b69b50] buffer underflow st=0 bufi=1089 size=2242
pts:806400 pts_time:8.96 dts:802800 dts_time:8.92 duration:0 duration_time:0 stream_index:0
[mpeg @ 0xaaaac6b69b50] buffer underflow st=0 bufi=879 size=1691
pts:810000 pts_time:9 dts:806400 dts_time:8.96 duration:0 duration_time:0 stream_index:0
[mpeg @ 0xaaaac6b69b50] buffer underflow st=0 bufi=1220 size=2424
pts:813600 pts_time:9.04 dts:810000 dts_time:9 duration:0 duration_time:0 stream_index:0
[mpeg @ 0xaaaac6b69b50] buffer underflow st=0 bufi=828 size=2025
pts:817200 pts_time:9.08 dts:813600 dts_time:9.04 duration:0 duration_time:0 stream_index:0
[mpeg @ 0xaaaac6b69b50] buffer underflow st=0 bufi=835 size=10423
[mpeg @ 0xaaaac6b69b50] buffer underflow st=0 bufi=2876 size=10423
[mpeg @ 0xaaaac6b69b50] buffer underflow st=0 bufi=4917 size=10423
[mpeg @ 0xaaaac6b69b50] buffer underflow st=0 bufi=6958 size=10423
[mpeg @ 0xaaaac6b69b50] buffer underflow st=0 bufi=8999 size=10423
pts:820800 pts_time:9.12 dts:817200 dts_time:9.08 duration:0 duration_time:0 stream_index:0
[mpeg @ 0xaaaac6b69b50] buffer underflow st=0 bufi=608 size=2866
[mpeg @ 0xaaaac6b69b50] buffer underflow st=0 bufi=2649 size=2866
pts:824400 pts_time:9.16 dts:820800 dts_time:9.12 duration:0 duration_time:0 stream_index:0
[mpeg @ 0xaaaac6b69b50] buffer underflow st=0 bufi=1815 size=2069
pts:828000 pts_time:9.2 dts:824400 dts_time:9.16 duration:0 duration_time:0 stream_index:0
[mpeg @ 0xaaaac6b69b50] buffer underflow st=0 bufi=1778 size=3257
pts:831600 pts_time:9.24 dts:828000 dts_time:9.2 duration:0 duration_time:0 stream_index:0
[mpeg @ 0xaaaac6b69b50] buffer underflow st=0 bufi=553 size=2034
pts:835200 pts_time:9.28 dts:831600 dts_time:9.24 duration:0 duration_time:0 stream_index:0
[mpeg @ 0xaaaac6b69b50] buffer underflow st=0 bufi=551 size=2051
pts:838800 pts_time:9.32 dts:835200 dts_time:9.28 duration:0 duration_time:0 stream_index:0
[mpeg @ 0xaaaac6b69b50] buffer underflow st=0 bufi=532 size=3452
[mpeg @ 0xaaaac6b69b50] buffer underflow st=0 bufi=2573 size=3452
pts:842400 pts_time:9.36 dts:838800 dts_time:9.32 duration:0 duration_time:0 stream_index:0
[mpeg @ 0xaaaac6b69b50] buffer underflow st=0 bufi=1141 size=2178
pts:846000 pts_time:9.4 dts:842400 dts_time:9.36 duration:0 duration_time:0 stream_index:0
[mpeg @ 0xaaaac6b69b50] buffer underflow st=0 bufi=995 size=2725
pts:849600 pts_time:9.44 dts:846000 dts_time:9.4 duration:0 duration_time:0 stream_index:0
[mpeg @ 0xaaaac6b69b50] buffer underflow st=0 bufi=302 size=2686
[mpeg @ 0xaaaac6b69b50] buffer underflow st=0 bufi=2343 size=2686
pts:853200 pts_time:9.48 dts:849600 dts_time:9.44 duration:0 duration_time:0 stream_index:0
[mpeg @ 0xaaaac6b69b50] buffer underflow st=0 bufi=1689 size=2563
pts:856800 pts_time:9.52 dts:853200 dts_time:9.48 duration:0 duration_time:0 stream_index:0
[mpeg @ 0xaaaac6b69b50] buffer underflow st=0 bufi=1158 size=2845
pts:860400 pts_time:9.56 dts:856800 dts_time:9.52 duration:0 duration_time:0 stream_index:0
[mpeg @ 0xaaaac6b69b50] buffer underflow st=0 bufi=345 size=9007
[mpeg @ 0xaaaac6b69b50] buffer underflow st=0 bufi=2386 size=9007
[mpeg @ 0xaaaac6b69b50] buffer underflow st=0 bufi=4427 size=9007
[mpeg @ 0xaaaac6b69b50] buffer underflow st=0 bufi=6468 size=9007
[mpeg @ 0xaaaac6b69b50] buffer underflow st=0 bufi=8509 size=9007
pts:864000 pts_time:9.6 dts:860400 dts_time:9.56 duration:0 duration_time:0 stream_index:0
[mpeg @ 0xaaaac6b69b50] buffer underflow st=0 bufi=1534 size=2164
pts:867600 pts_time:9.64 dts:864000 dts_time:9.6 duration:0 duration_time:0 stream_index:0
[mpeg @ 0xaaaac6b69b50] buffer underflow st=0 bufi=1402 size=2610
pts:871200 pts_time:9.68 dts:867600 dts_time:9.64 duration:0 duration_time:0 stream_index:0
[mpeg @ 0xaaaac6b69b50] buffer underflow st=0 bufi=824 size=3554
[mpeg @ 0xaaaac6b69b50] buffer underflow st=0 bufi=2865 size=3554
pts:874800 pts_time:9.72 dts:871200 dts_time:9.68 duration:0 duration_time:0 stream_index:0
[mpeg @ 0xaaaac6b69b50] buffer underflow st=0 bufi=1343 size=1535
pts:878400 pts_time:9.76 dts:874800 dts_time:9.72 duration:0 duration_time:0 stream_index:0
[mpeg @ 0xaaaac6b69b50] buffer underflow st=0 bufi=1840 size=2117
pts:882000 pts_time:9.8 dts:878400 dts_time:9.76 duration:0 duration_time:0 stream_index:0
[mpeg @ 0xaaaac6b69b50] buffer underflow st=0 bufi=1755 size=2625
pts:885600 pts_time:9.84 dts:882000 dts_time:9.8 duration:0 duration_time:0 stream_index:0
[mpeg @ 0xaaaac6b69b50] buffer underflow st=0 bufi=1162 size=2235
pts:889200 pts_time:9.88 dts:885600 dts_time:9.84 duration:0 duration_time:0 stream_index:0
[mpeg @ 0xaaaac6b69b50] buffer underflow st=0 bufi=959 size=2018
pts:892800 pts_time:9.92 dts:889200 dts_time:9.88 duration:0 duration_time:0 stream_index:0
[mpeg @ 0xaaaac6b69b50] buffer underflow st=0 bufi=973 size=1810
[mpeg @ 0xaaaac6b69b50] buffer underflow st=0 bufi=1195 size=2051
pts:896400 pts_time:9.96 dts:892800 dts_time:9.92 duration:0 duration_time:0 stream_index:0
pts:900000 pts_time:10 dts:896400 dts_time:9.96 duration:0 duration_time:0 stream_index:0
